<svg xmlns="http://www.w3.org/2000/svg" xmlns:xlink="http://www.w3.org/1999/xlink" contentStyleType="text/css" data-diagram-type="CLASS" height="599px" preserveAspectRatio="none" style="width:981px;height:599px;background:#FFFFFF;" version="1.1" viewBox="0 0 981 599" width="981px" zoomAndPan="magnify"><defs/><g><rect fill="#FFFFCC" height="26.6406" rx="2.5" ry="2.5" style="stroke:#FFDD88;stroke-width:3;" width="970.1064" x="5" y="5"/><text fill="#000000" font-family="monospace" font-size="10" lengthAdjust="spacing" textLength="355.21" x="10" y="20">Please use '!option handwritten true' to enable handwritten</text><!--class team--><g class="entity" data-entity="team" data-source-line="25" data-uid="ent0002" id="entity_team"><rect fill="#FFFFFF" height="83.1875" rx="2.5" ry="2.5" style="stroke:#2E8B57;stroke-width:0.5;" width="245.9183" x="353.52" y="51.7906"/><text fill="#000000" font-family="sans-serif" font-size="14" font-weight="bold" lengthAdjust="spacing" textLength="40.2227" x="456.3678" y="69.7857">team</text><line style="stroke:#2E8B57;stroke-width:0.5;" x1="354.52" x2="598.4383" y1="78.0875" y2="78.0875"/><path d="M366.9367,85.551 C365.3267,85.551 364.02,86.8577 364.02,88.4677 C364.02,88.6544 364.02,88.841 364.055,89.016 L360.52,92.551 L360.52,94.8844 L364.02,94.8844 L364.02,92.551 L366.3533,92.551 L366.3533,91.3844 L366.3883,91.3494 C366.5633,91.3844 366.75,91.3844 366.9367,91.3844 C368.5467,91.3844 369.8533,90.0777 369.8533,88.4677 C369.8533,86.8577 368.5467,85.551 366.9367,85.551 M367.52,86.7177 C368.1617,86.7177 368.6867,87.2427 368.6867,87.8844 C368.6867,88.526 368.1617,89.051 367.52,89.051 C366.8783,89.051 366.3533,88.526 366.3533,87.8844 C366.3533,87.2427 366.8783,86.7177 367.52,86.7177" fill="#B8860B"/><text fill="#000000" font-family="sans-serif" font-size="14" font-weight="bold" lengthAdjust="spacing" textLength="14.8203" x="375.7274" y="95.0826">id</text><text fill="#000000" font-family="sans-serif" font-size="14" lengthAdjust="spacing" textLength="70.5879" x="390.5477" y="95.0826">: INTEGER</text><path d="M365.1867,103.0146 C363.25,103.0146 361.6867,104.5779 361.6867,106.5146 C361.6867,108.4513 363.25,110.0146 365.1867,110.0146 C367.1233,110.0146 368.6867,108.4513 368.6867,106.5146 C368.6867,104.5779 367.1233,103.0146 365.1867,103.0146" fill="#EFEFEF"/><text fill="#000000" font-family="sans-serif" font-size="14" lengthAdjust="spacing" textLength="202.2891" x="375.3035" y="111.3795">name: CHARACTER VARYING</text><path d="M365.1867,119.3115 C363.25,119.3115 361.6867,120.8748 361.6867,122.8115 C361.6867,124.7481 363.25,126.3115 365.1867,126.3115 C367.1233,126.3115 368.6867,124.7481 368.6867,122.8115 C368.6867,120.8748 367.1233,119.3115 365.1867,119.3115" fill="#EFEFEF"/><text fill="#000000" font-family="sans-serif" font-size="14" lengthAdjust="spacing" textLength="218.1348" x="375.3035" y="127.6764">location: CHARACTER VARYING</text></g><!--class fighter_stats--><g class="entity" data-entity="fighter_stats" data-source-line="31" data-uid="ent0003" id="entity_fighter_stats"><rect fill="#FFFFFF" height="148.375" rx="2.5" ry="2.5" style="stroke:#2E8B57;stroke-width:0.5;" width="196.638" x="407.16" y="444.0906"/><text fill="#000000" font-family="sans-serif" font-size="14" font-weight="bold" lengthAdjust="spacing" textLength="100.4678" x="455.2451" y="462.0857">fighter_stats</text><line style="stroke:#2E8B57;stroke-width:0.5;" x1="408.16" x2="602.798" y1="470.3875" y2="470.3875"/><path d="M420.5767,477.851 C418.9667,477.851 417.66,479.1577 417.66,480.7677 C417.66,480.9544 417.66,481.141 417.695,481.316 L414.16,484.851 L414.16,487.1844 L417.66,487.1844 L417.66,484.851 L419.9933,484.851 L419.9933,483.6844 L420.0283,483.6494 C420.2033,483.6844 420.39,483.6844 420.5767,483.6844 C422.1867,483.6844 423.4933,482.3777 423.4933,480.7677 C423.4933,479.1577 422.1867,477.851 420.5767,477.851 M421.16,479.0177 C421.8017,479.0177 422.3267,479.5427 422.3267,480.1844 C422.3267,480.826 421.8017,481.351 421.16,481.351 C420.5183,481.351 419.9933,480.826 419.9933,480.1844 C419.9933,479.5427 420.5183,479.0177 421.16,479.0177" fill="#B8860B"/><text fill="#000000" font-family="sans-serif" font-size="14" font-weight="bold" lengthAdjust="spacing" textLength="14.8203" x="429.3674" y="487.3826">id</text><text fill="#000000" font-family="sans-serif" font-size="14" lengthAdjust="spacing" textLength="70.5879" x="444.1877" y="487.3826">: INTEGER</text><path d="M418.8267,495.3146 C416.89,495.3146 415.3267,496.8779 415.3267,498.8146 C415.3267,500.7513 416.89,502.3146 418.8267,502.3146 C420.7633,502.3146 422.3267,500.7513 422.3267,498.8146 C422.3267,496.8779 420.7633,495.3146 418.8267,495.3146" fill="#EFEFEF"/><text fill="#000000" font-family="sans-serif" font-size="14" lengthAdjust="spacing" textLength="102.0947" x="428.9435" y="503.6795">wins: INTEGER</text><path d="M418.8267,511.6115 C416.89,511.6115 415.3267,513.1748 415.3267,515.1115 C415.3267,517.0481 416.89,518.6115 418.8267,518.6115 C420.7633,518.6115 422.3267,517.0481 422.3267,515.1115 C422.3267,513.1748 420.7633,511.6115 418.8267,511.6115" fill="#EFEFEF"/><text fill="#000000" font-family="sans-serif" font-size="14" lengthAdjust="spacing" textLength="113.5381" x="428.9435" y="519.9764">losses: INTEGER</text><path d="M418.8267,527.9083 C416.89,527.9083 415.3267,529.4717 415.3267,531.4083 C415.3267,533.345 416.89,534.9083 418.8267,534.9083 C420.7633,534.9083 422.3267,533.345 422.3267,531.4083 C422.3267,529.4717 420.7633,527.9083 418.8267,527.9083" fill="#EFEFEF"/><text fill="#000000" font-family="sans-serif" font-size="14" lengthAdjust="spacing" textLength="112.5537" x="428.9435" y="536.2732">draws: INTEGER</text><path d="M418.8267,544.2052 C416.89,544.2052 415.3267,545.7685 415.3267,547.7052 C415.3267,549.6419 416.89,551.2052 418.8267,551.2052 C420.7633,551.2052 422.3267,549.6419 422.3267,547.7052 C422.3267,545.7685 420.7633,544.2052 418.8267,544.2052" fill="#EFEFEF"/><text fill="#000000" font-family="sans-serif" font-size="14" lengthAdjust="spacing" textLength="142.1602" x="428.9435" y="552.5701">knockouts: INTEGER</text><path d="M418.8267,560.5021 C416.89,560.5021 415.3267,562.0654 415.3267,564.0021 C415.3267,565.9388 416.89,567.5021 418.8267,567.5021 C420.7633,567.5021 422.3267,565.9388 422.3267,564.0021 C422.3267,562.0654 420.7633,560.5021 418.8267,560.5021" fill="#EFEFEF"/><text fill="#000000" font-family="sans-serif" font-size="14" lengthAdjust="spacing" textLength="156.3789" x="428.9435" y="568.867">submissions: INTEGER</text><path d="M420.5767,575.6323 C418.9667,575.6323 417.66,576.939 417.66,578.549 C417.66,578.7356 417.66,578.9223 417.695,579.0973 L414.16,582.6323 L414.16,584.9656 L417.66,584.9656 L417.66,582.6323 L419.9933,582.6323 L419.9933,581.4656 L420.0283,581.4306 C420.2033,581.4656 420.39,581.4656 420.5767,581.4656 C422.1867,581.4656 423.4933,580.159 423.4933,578.549 C423.4933,576.939 422.1867,575.6323 420.5767,575.6323 M421.16,576.799 C421.8017,576.799 422.3267,577.324 422.3267,577.9656 C422.3267,578.6073 421.8017,579.1323 421.16,579.1323 C420.5183,579.1323 419.9933,578.6073 419.9933,577.9656 C419.9933,577.324 420.5183,576.799 421.16,576.799" fill="#AAAAAA"/><text fill="#000000" font-family="sans-serif" font-size="14" lengthAdjust="spacing" textLength="168.8545" x="428.9435" y="585.1639">fighterId: INTEGER «FK»</text></g><!--class fight_result--><g class="entity" data-entity="fight_result" data-source-line="41" data-uid="ent0004" id="entity_fight_result"><rect fill="#FFFFFF" height="148.375" rx="2.5" ry="2.5" style="stroke:#2E8B57;stroke-width:0.5;" width="279.9271" x="647.52" y="444.0906"/><text fill="#000000" font-family="sans-serif" font-size="14" font-weight="bold" lengthAdjust="spacing" textLength="90.7607" x="742.1032" y="462.0857">fight_result</text><line style="stroke:#2E8B57;stroke-width:0.5;" x1="648.52" x2="926.4471" y1="470.3875" y2="470.3875"/><path d="M660.9367,477.851 C659.3267,477.851 658.02,479.1577 658.02,480.7677 C658.02,480.9544 658.02,481.141 658.055,481.316 L654.52,484.851 L654.52,487.1844 L658.02,487.1844 L658.02,484.851 L660.3533,484.851 L660.3533,483.6844 L660.3883,483.6494 C660.5633,483.6844 660.75,483.6844 660.9367,483.6844 C662.5467,483.6844 663.8533,482.3777 663.8533,480.7677 C663.8533,479.1577 662.5467,477.851 660.9367,477.851 M661.52,479.0177 C662.1617,479.0177 662.6867,479.5427 662.6867,480.1844 C662.6867,480.826 662.1617,481.351 661.52,481.351 C660.8783,481.351 660.3533,480.826 660.3533,480.1844 C660.3533,479.5427 660.8783,479.0177 661.52,479.0177" fill="#B8860B"/><text fill="#000000" font-family="sans-serif" font-size="14" font-weight="bold" lengthAdjust="spacing" textLength="14.8203" x="669.7274" y="487.3826">id</text><text fill="#000000" font-family="sans-serif" font-size="14" lengthAdjust="spacing" textLength="70.5879" x="684.5477" y="487.3826">: INTEGER</text><path d="M659.1867,495.3146 C657.25,495.3146 655.6867,496.8779 655.6867,498.8146 C655.6867,500.7513 657.25,502.3146 659.1867,502.3146 C661.1233,502.3146 662.6867,500.7513 662.6867,498.8146 C662.6867,496.8779 661.1233,495.3146 659.1867,495.3146" fill="#EFEFEF"/><text fill="#000000" font-family="sans-serif" font-size="14" lengthAdjust="spacing" textLength="138.5371" x="669.3035" y="503.6795">isWinner: BOOLEAN</text><path d="M659.1867,511.6115 C657.25,511.6115 655.6867,513.1748 655.6867,515.1115 C655.6867,517.0481 657.25,518.6115 659.1867,518.6115 C661.1233,518.6115 662.6867,517.0481 662.6867,515.1115 C662.6867,513.1748 661.1233,511.6115 659.1867,511.6115" fill="#EFEFEF"/><text fill="#000000" font-family="sans-serif" font-size="14" lengthAdjust="spacing" textLength="216.6514" x="669.3035" y="519.9764">method: CHARACTER VARYING</text><path d="M659.1867,527.9083 C657.25,527.9083 655.6867,529.4717 655.6867,531.4083 C655.6867,533.345 657.25,534.9083 659.1867,534.9083 C661.1233,534.9083 662.6867,533.345 662.6867,531.4083 C662.6867,529.4717 661.1233,527.9083 659.1867,527.9083" fill="#EFEFEF"/><text fill="#000000" font-family="sans-serif" font-size="14" lengthAdjust="spacing" textLength="111.542" x="669.3035" y="536.2732">round: INTEGER</text><path d="M659.1867,544.2052 C657.25,544.2052 655.6867,545.7685 655.6867,547.7052 C655.6867,549.6419 657.25,551.2052 659.1867,551.2052 C661.1233,551.2052 662.6867,549.6419 662.6867,547.7052 C662.6867,545.7685 661.1233,544.2052 659.1867,544.2052" fill="#EFEFEF"/><text fill="#000000" font-family="sans-serif" font-size="14" lengthAdjust="spacing" textLength="252.1436" x="669.3035" y="552.5701">timeInRound: CHARACTER VARYING</text><path d="M660.9367,559.3354 C659.3267,559.3354 658.02,560.6421 658.02,562.2521 C658.02,562.4388 658.02,562.6254 658.055,562.8004 L654.52,566.3354 L654.52,568.6688 L658.02,568.6688 L658.02,566.3354 L660.3533,566.3354 L660.3533,565.1688 L660.3883,565.1338 C660.5633,565.1688 660.75,565.1688 660.9367,565.1688 C662.5467,565.1688 663.8533,563.8621 663.8533,562.2521 C663.8533,560.6421 662.5467,559.3354 660.9367,559.3354 M661.52,560.5021 C662.1617,560.5021 662.6867,561.0271 662.6867,561.6688 C662.6867,562.3104 662.1617,562.8354 661.52,562.8354 C660.8783,562.8354 660.3533,562.3104 660.3533,561.6688 C660.3533,561.0271 660.8783,560.5021 661.52,560.5021" fill="#AAAAAA"/><text fill="#000000" font-family="sans-serif" font-size="14" lengthAdjust="spacing" textLength="154.4854" x="669.3035" y="568.867">fightId: INTEGER «FK»</text><path d="M660.9367,575.6323 C659.3267,575.6323 658.02,576.939 658.02,578.549 C658.02,578.7356 658.02,578.9223 658.055,579.0973 L654.52,582.6323 L654.52,584.9656 L658.02,584.9656 L658.02,582.6323 L660.3533,582.6323 L660.3533,581.4656 L660.3883,581.4306 C660.5633,581.4656 660.75,581.4656 660.9367,581.4656 C662.5467,581.4656 663.8533,580.159 663.8533,578.549 C663.8533,576.939 662.5467,575.6323 660.9367,575.6323 M661.52,576.799 C662.1617,576.799 662.6867,577.324 662.6867,577.9656 C662.6867,578.6073 662.1617,579.1323 661.52,579.1323 C660.8783,579.1323 660.3533,578.6073 660.3533,577.9656 C660.3533,577.324 660.8783,576.799 661.52,576.799" fill="#AAAAAA"/><text fill="#000000" font-family="sans-serif" font-size="14" lengthAdjust="spacing" textLength="168.8545" x="669.3035" y="585.1639">fighterId: INTEGER «FK»</text></g><!--class fighter--><g class="entity" data-entity="fighter" data-source-line="51" data-uid="ent0005" id="entity_fighter"><rect fill="#FFFFFF" height="180.9688" rx="2.5" ry="2.5" style="stroke:#2E8B57;stroke-width:0.5;" width="358.0345" x="242.46" y="203.1306"/><text fill="#000000" font-family="sans-serif" font-size="14" font-weight="bold" lengthAdjust="spacing" textLength="53.9697" x="394.4924" y="221.1257">fighter</text><line style="stroke:#2E8B57;stroke-width:0.5;" x1="243.46" x2="599.4945" y1="229.4275" y2="229.4275"/><path d="M255.8767,236.891 C254.2667,236.891 252.96,238.1977 252.96,239.8077 C252.96,239.9944 252.96,240.181 252.995,240.356 L249.46,243.891 L249.46,246.2244 L252.96,246.2244 L252.96,243.891 L255.2933,243.891 L255.2933,242.7244 L255.3283,242.6894 C255.5033,242.7244 255.69,242.7244 255.8767,242.7244 C257.4867,242.7244 258.7933,241.4177 258.7933,239.8077 C258.7933,238.1977 257.4867,236.891 255.8767,236.891 M256.46,238.0577 C257.1017,238.0577 257.6267,238.5827 257.6267,239.2244 C257.6267,239.866 257.1017,240.391 256.46,240.391 C255.8183,240.391 255.2933,239.866 255.2933,239.2244 C255.2933,238.5827 255.8183,238.0577 256.46,238.0577" fill="#B8860B"/><text fill="#000000" font-family="sans-serif" font-size="14" font-weight="bold" lengthAdjust="spacing" textLength="14.8203" x="264.6674" y="246.4226">id</text><text fill="#000000" font-family="sans-serif" font-size="14" lengthAdjust="spacing" textLength="70.5879" x="279.4877" y="246.4226">: INTEGER</text><path d="M254.1267,254.3546 C252.19,254.3546 250.6267,255.9179 250.6267,257.8546 C250.6267,259.7913 252.19,261.3546 254.1267,261.3546 C256.0633,261.3546 257.6267,259.7913 257.6267,257.8546 C257.6267,255.9179 256.0633,254.3546 254.1267,254.3546" fill="#EFEFEF"/><text fill="#000000" font-family="sans-serif" font-size="14" lengthAdjust="spacing" textLength="225.4697" x="264.2435" y="262.7195">fullName: CHARACTER VARYING</text><path d="M254.1267,270.6515 C252.19,270.6515 250.6267,272.2148 250.6267,274.1515 C250.6267,276.0881 252.19,277.6515 254.1267,277.6515 C256.0633,277.6515 257.6267,276.0881 257.6267,274.1515 C257.6267,272.2148 256.0633,270.6515 254.1267,270.6515" fill="#EFEFEF"/><text fill="#000000" font-family="sans-serif" font-size="14" lengthAdjust="spacing" textLength="230.8564" x="264.2435" y="279.0164">nickname: CHARACTER VARYING</text><path d="M254.1267,286.9483 C252.19,286.9483 250.6267,288.5117 250.6267,290.4483 C250.6267,292.385 252.19,293.9483 254.1267,293.9483 C256.0633,293.9483 257.6267,292.385 257.6267,290.4483 C257.6267,288.5117 256.0633,286.9483 254.1267,286.9483" fill="#EFEFEF"/><text fill="#000000" font-family="sans-serif" font-size="14" lengthAdjust="spacing" textLength="330.251" x="264.2435" y="295.3132">birthDate: TIMESTAMP WITHOUT TIME ZONE(6)</text><path d="M254.1267,303.2452 C252.19,303.2452 250.6267,304.8085 250.6267,306.7452 C250.6267,308.6819 252.19,310.2452 254.1267,310.2452 C256.0633,310.2452 257.6267,308.6819 257.6267,306.7452 C257.6267,304.8085 256.0633,303.2452 254.1267,303.2452" fill="#EFEFEF"/><text fill="#000000" font-family="sans-serif" font-size="14" lengthAdjust="spacing" textLength="236.9883" x="264.2435" y="311.6101">nationality: CHARACTER VARYING</text><path d="M254.1267,319.5421 C252.19,319.5421 250.6267,321.1054 250.6267,323.0421 C250.6267,324.9788 252.19,326.5421 254.1267,326.5421 C256.0633,326.5421 257.6267,324.9788 257.6267,323.0421 C257.6267,321.1054 256.0633,319.5421 254.1267,319.5421" fill="#EFEFEF"/><text fill="#000000" font-family="sans-serif" font-size="14" lengthAdjust="spacing" textLength="215.3799" x="264.2435" y="327.907">heightCm: DOUBLE PRECISION</text><path d="M254.1267,335.839 C252.19,335.839 250.6267,337.4023 250.6267,339.339 C250.6267,341.2756 252.19,342.839 254.1267,342.839 C256.0633,342.839 257.6267,341.2756 257.6267,339.339 C257.6267,337.4023 256.0633,335.839 254.1267,335.839" fill="#EFEFEF"/><text fill="#000000" font-family="sans-serif" font-size="14" lengthAdjust="spacing" textLength="210.2734" x="264.2435" y="344.2039">reachCm: DOUBLE PRECISION</text><path d="M255.8767,350.9692 C254.2667,350.9692 252.96,352.2758 252.96,353.8858 C252.96,354.0725 252.96,354.2592 252.995,354.4342 L249.46,357.9692 L249.46,360.3025 L252.96,360.3025 L252.96,357.9692 L255.2933,357.9692 L255.2933,356.8025 L255.3283,356.7675 C255.5033,356.8025 255.69,356.8025 255.8767,356.8025 C257.4867,356.8025 258.7933,355.4958 258.7933,353.8858 C258.7933,352.2758 257.4867,350.9692 255.8767,350.9692 M256.46,352.1358 C257.1017,352.1358 257.6267,352.6608 257.6267,353.3025 C257.6267,353.9442 257.1017,354.4692 256.46,354.4692 C255.8183,354.4692 255.2933,353.9442 255.2933,353.3025 C255.2933,352.6608 255.8183,352.1358 256.46,352.1358" fill="#AAAAAA"/><text fill="#000000" font-family="sans-serif" font-size="14" lengthAdjust="spacing" textLength="206.4521" x="264.2435" y="360.5007">weightClassId: INTEGER «FK»</text><path d="M255.8767,367.266 C254.2667,367.266 252.96,368.5727 252.96,370.1827 C252.96,370.3694 252.96,370.556 252.995,370.731 L249.46,374.266 L249.46,376.5994 L252.96,376.5994 L252.96,374.266 L255.2933,374.266 L255.2933,373.0994 L255.3283,373.0644 C255.5033,373.0994 255.69,373.0994 255.8767,373.0994 C257.4867,373.0994 258.7933,371.7927 258.7933,370.1827 C258.7933,368.5727 257.4867,367.266 255.8767,367.266 M256.46,368.4327 C257.1017,368.4327 257.6267,368.9577 257.6267,369.5994 C257.6267,370.241 257.1017,370.766 256.46,370.766 C255.8183,370.766 255.2933,370.241 255.2933,369.5994 C255.2933,368.9577 255.8183,368.4327 256.46,368.4327" fill="#AAAAAA"/><text fill="#000000" font-family="sans-serif" font-size="14" lengthAdjust="spacing" textLength="158.7373" x="264.2435" y="376.7976">teamId: INTEGER «FK»</text></g><!--class ranking--><g class="entity" data-entity="ranking" data-source-line="63" data-uid="ent0006" id="entity_ranking"><rect fill="#FFFFFF" height="115.7813" rx="2.5" ry="2.5" style="stroke:#2E8B57;stroke-width:0.5;" width="364.9593" x="7" y="460.3906"/><text fill="#000000" font-family="sans-serif" font-size="14" font-weight="bold" lengthAdjust="spacing" textLength="60.416" x="159.2716" y="478.3857">ranking</text><line style="stroke:#2E8B57;stroke-width:0.5;" x1="8" x2="370.9593" y1="486.6875" y2="486.6875"/><path d="M20.4167,494.151 C18.8067,494.151 17.5,495.4577 17.5,497.0677 C17.5,497.2544 17.5,497.441 17.535,497.616 L14,501.151 L14,503.4844 L17.5,503.4844 L17.5,501.151 L19.8333,501.151 L19.8333,499.9844 L19.8683,499.9494 C20.0433,499.9844 20.23,499.9844 20.4167,499.9844 C22.0267,499.9844 23.3333,498.6777 23.3333,497.0677 C23.3333,495.4577 22.0267,494.151 20.4167,494.151 M21,495.3177 C21.6417,495.3177 22.1667,495.8427 22.1667,496.4844 C22.1667,497.126 21.6417,497.651 21,497.651 C20.3583,497.651 19.8333,497.126 19.8333,496.4844 C19.8333,495.8427 20.3583,495.3177 21,495.3177" fill="#B8860B"/><text fill="#000000" font-family="sans-serif" font-size="14" font-weight="bold" lengthAdjust="spacing" textLength="14.8203" x="29.2074" y="503.6826">id</text><text fill="#000000" font-family="sans-serif" font-size="14" lengthAdjust="spacing" textLength="70.5879" x="44.0277" y="503.6826">: INTEGER</text><path d="M18.6667,511.6146 C16.73,511.6146 15.1667,513.1779 15.1667,515.1146 C15.1667,517.0513 16.73,518.6146 18.6667,518.6146 C20.6033,518.6146 22.1667,517.0513 22.1667,515.1146 C22.1667,513.1779 20.6033,511.6146 18.6667,511.6146" fill="#EFEFEF"/><text fill="#000000" font-family="sans-serif" font-size="14" lengthAdjust="spacing" textLength="101.9033" x="28.7835" y="519.9795">rank: INTEGER</text><path d="M18.6667,527.9115 C16.73,527.9115 15.1667,529.4748 15.1667,531.4115 C15.1667,533.3481 16.73,534.9115 18.6667,534.9115 C20.6033,534.9115 22.1667,533.3481 22.1667,531.4115 C22.1667,529.4748 20.6033,527.9115 18.6667,527.9115" fill="#EFEFEF"/><text fill="#000000" font-family="sans-serif" font-size="14" lengthAdjust="spacing" textLength="337.1758" x="28.7835" y="536.2764">updatedAt: TIMESTAMP WITHOUT TIME ZONE(6)</text><path d="M20.4167,543.0417 C18.8067,543.0417 17.5,544.3483 17.5,545.9583 C17.5,546.145 17.5,546.3317 17.535,546.5067 L14,550.0417 L14,552.375 L17.5,552.375 L17.5,550.0417 L19.8333,550.0417 L19.8333,548.875 L19.8683,548.84 C20.0433,548.875 20.23,548.875 20.4167,548.875 C22.0267,548.875 23.3333,547.5683 23.3333,545.9583 C23.3333,544.3483 22.0267,543.0417 20.4167,543.0417 M21,544.2083 C21.6417,544.2083 22.1667,544.7333 22.1667,545.375 C22.1667,546.0167 21.6417,546.5417 21,546.5417 C20.3583,546.5417 19.8333,546.0167 19.8333,545.375 C19.8333,544.7333 20.3583,544.2083 21,544.2083" fill="#AAAAAA"/><text fill="#000000" font-family="sans-serif" font-size="14" lengthAdjust="spacing" textLength="168.8545" x="28.7835" y="552.5732">fighterId: INTEGER «FK»</text><path d="M20.4167,559.3385 C18.8067,559.3385 17.5,560.6452 17.5,562.2552 C17.5,562.4419 17.5,562.6285 17.535,562.8035 L14,566.3385 L14,568.6719 L17.5,568.6719 L17.5,566.3385 L19.8333,566.3385 L19.8333,565.1719 L19.8683,565.1369 C20.0433,565.1719 20.23,565.1719 20.4167,565.1719 C22.0267,565.1719 23.3333,563.8652 23.3333,562.2552 C23.3333,560.6452 22.0267,559.3385 20.4167,559.3385 M21,560.5052 C21.6417,560.5052 22.1667,561.0302 22.1667,561.6719 C22.1667,562.3135 21.6417,562.8385 21,562.8385 C20.3583,562.8385 19.8333,562.3135 19.8333,561.6719 C19.8333,561.0302 20.3583,560.5052 21,560.5052" fill="#AAAAAA"/><text fill="#000000" font-family="sans-serif" font-size="14" lengthAdjust="spacing" textLength="206.4521" x="28.7835" y="568.8701">weightClassId: INTEGER «FK»</text></g><!--class weight_class--><g class="entity" data-entity="weight_class" data-source-line="71" data-uid="ent0007" id="entity_weight_class"><rect fill="#FFFFFF" height="83.1875" rx="2.5" ry="2.5" style="stroke:#2E8B57;stroke-width:0.5;" width="257.0335" x="61.96" y="51.7906"/><text fill="#000000" font-family="sans-serif" font-size="14" font-weight="bold" lengthAdjust="spacing" textLength="100.1191" x="140.4172" y="69.7857">weight_class</text><line style="stroke:#2E8B57;stroke-width:0.5;" x1="62.96" x2="317.9935" y1="78.0875" y2="78.0875"/><path d="M75.3767,85.551 C73.7667,85.551 72.46,86.8577 72.46,88.4677 C72.46,88.6544 72.46,88.841 72.495,89.016 L68.96,92.551 L68.96,94.8844 L72.46,94.8844 L72.46,92.551 L74.7933,92.551 L74.7933,91.3844 L74.8283,91.3494 C75.0033,91.3844 75.19,91.3844 75.3767,91.3844 C76.9867,91.3844 78.2933,90.0777 78.2933,88.4677 C78.2933,86.8577 76.9867,85.551 75.3767,85.551 M75.96,86.7177 C76.6017,86.7177 77.1267,87.2427 77.1267,87.8844 C77.1267,88.526 76.6017,89.051 75.96,89.051 C75.3183,89.051 74.7933,88.526 74.7933,87.8844 C74.7933,87.2427 75.3183,86.7177 75.96,86.7177" fill="#B8860B"/><text fill="#000000" font-family="sans-serif" font-size="14" font-weight="bold" lengthAdjust="spacing" textLength="14.8203" x="84.1674" y="95.0826">id</text><text fill="#000000" font-family="sans-serif" font-size="14" lengthAdjust="spacing" textLength="70.5879" x="98.9877" y="95.0826">: INTEGER</text><path d="M73.6267,103.0146 C71.69,103.0146 70.1267,104.5779 70.1267,106.5146 C70.1267,108.4513 71.69,110.0146 73.6267,110.0146 C75.5633,110.0146 77.1267,108.4513 77.1267,106.5146 C77.1267,104.5779 75.5633,103.0146 73.6267,103.0146" fill="#EFEFEF"/><text fill="#000000" font-family="sans-serif" font-size="14" lengthAdjust="spacing" textLength="202.2891" x="83.7435" y="111.3795">name: CHARACTER VARYING</text><path d="M73.6267,119.3115 C71.69,119.3115 70.1267,120.8748 70.1267,122.8115 C70.1267,124.7481 71.69,126.3115 73.6267,126.3115 C75.5633,126.3115 77.1267,124.7481 77.1267,122.8115 C77.1267,120.8748 75.5633,119.3115 73.6267,119.3115" fill="#EFEFEF"/><text fill="#000000" font-family="sans-serif" font-size="14" lengthAdjust="spacing" textLength="229.25" x="83.7435" y="127.6764">weightLimit: DOUBLE PRECISION</text></g><!--class fight--><g class="entity" data-entity="fight" data-source-line="77" data-uid="ent0008" id="entity_fight"><rect fill="#FFFFFF" height="148.375" rx="2.5" ry="2.5" style="stroke:#2E8B57;stroke-width:0.5;" width="323.2464" x="635.86" y="219.4206"/><text fill="#000000" font-family="sans-serif" font-size="14" font-weight="bold" lengthAdjust="spacing" textLength="37.5703" x="778.6981" y="237.4157">fight</text><line style="stroke:#2E8B57;stroke-width:0.5;" x1="636.86" x2="958.1064" y1="245.7175" y2="245.7175"/><path d="M649.2767,253.181 C647.6667,253.181 646.36,254.4877 646.36,256.0977 C646.36,256.2844 646.36,256.471 646.395,256.646 L642.86,260.181 L642.86,262.5144 L646.36,262.5144 L646.36,260.181 L648.6933,260.181 L648.6933,259.0144 L648.7283,258.9794 C648.9033,259.0144 649.09,259.0144 649.2767,259.0144 C650.8867,259.0144 652.1933,257.7077 652.1933,256.0977 C652.1933,254.4877 650.8867,253.181 649.2767,253.181 M649.86,254.3477 C650.5017,254.3477 651.0267,254.8727 651.0267,255.5144 C651.0267,256.156 650.5017,256.681 649.86,256.681 C649.2183,256.681 648.6933,256.156 648.6933,255.5144 C648.6933,254.8727 649.2183,254.3477 649.86,254.3477" fill="#B8860B"/><text fill="#000000" font-family="sans-serif" font-size="14" font-weight="bold" lengthAdjust="spacing" textLength="14.8203" x="658.0674" y="262.7126">id</text><text fill="#000000" font-family="sans-serif" font-size="14" lengthAdjust="spacing" textLength="70.5879" x="672.8877" y="262.7126">: INTEGER</text><path d="M647.5267,270.6446 C645.59,270.6446 644.0267,272.2079 644.0267,274.1446 C644.0267,276.0813 645.59,277.6446 647.5267,277.6446 C649.4633,277.6446 651.0267,276.0813 651.0267,274.1446 C651.0267,272.2079 649.4633,270.6446 647.5267,270.6446" fill="#EFEFEF"/><text fill="#000000" font-family="sans-serif" font-size="14" lengthAdjust="spacing" textLength="153.1182" x="657.6435" y="279.0095">roundCount: INTEGER</text><path d="M647.5267,286.9415 C645.59,286.9415 644.0267,288.5048 644.0267,290.4415 C644.0267,292.3781 645.59,293.9415 647.5267,293.9415 C649.4633,293.9415 651.0267,292.3781 651.0267,290.4415 C651.0267,288.5048 649.4633,286.9415 647.5267,286.9415" fill="#EFEFEF"/><text fill="#000000" font-family="sans-serif" font-size="14" lengthAdjust="spacing" textLength="216.6514" x="657.6435" y="295.3064">method: CHARACTER VARYING</text><path d="M647.5267,303.2383 C645.59,303.2383 644.0267,304.8017 644.0267,306.7383 C644.0267,308.675 645.59,310.2383 647.5267,310.2383 C649.4633,310.2383 651.0267,308.675 651.0267,306.7383 C651.0267,304.8017 649.4633,303.2383 647.5267,303.2383" fill="#EFEFEF"/><text fill="#000000" font-family="sans-serif" font-size="14" lengthAdjust="spacing" textLength="221.498" x="657.6435" y="311.6032">duration: CHARACTER VARYING</text><path d="M647.5267,319.5352 C645.59,319.5352 644.0267,321.0985 644.0267,323.0352 C644.0267,324.9719 645.59,326.5352 647.5267,326.5352 C649.4633,326.5352 651.0267,324.9719 651.0267,323.0352 C651.0267,321.0985 649.4633,319.5352 647.5267,319.5352" fill="#EFEFEF"/><text fill="#000000" font-family="sans-serif" font-size="14" lengthAdjust="spacing" textLength="295.4629" x="657.6435" y="327.9001">date: TIMESTAMP WITHOUT TIME ZONE(6)</text><path d="M649.2767,334.6654 C647.6667,334.6654 646.36,335.9721 646.36,337.5821 C646.36,337.7688 646.36,337.9554 646.395,338.1304 L642.86,341.6654 L642.86,343.9988 L646.36,343.9988 L646.36,341.6654 L648.6933,341.6654 L648.6933,340.4988 L648.7283,340.4638 C648.9033,340.4988 649.09,340.4988 649.2767,340.4988 C650.8867,340.4988 652.1933,339.1921 652.1933,337.5821 C652.1933,335.9721 650.8867,334.6654 649.2767,334.6654 M649.86,335.8321 C650.5017,335.8321 651.0267,336.3571 651.0267,336.9988 C651.0267,337.6404 650.5017,338.1654 649.86,338.1654 C649.2183,338.1654 648.6933,337.6404 648.6933,336.9988 C648.6933,336.3571 649.2183,335.8321 649.86,335.8321" fill="#AAAAAA"/><text fill="#000000" font-family="sans-serif" font-size="14" lengthAdjust="spacing" textLength="162.292" x="657.6435" y="344.197">eventId: INTEGER «FK»</text><path d="M649.2767,350.9623 C647.6667,350.9623 646.36,352.269 646.36,353.879 C646.36,354.0656 646.36,354.2523 646.395,354.4273 L642.86,357.9623 L642.86,360.2956 L646.36,360.2956 L646.36,357.9623 L648.6933,357.9623 L648.6933,356.7956 L648.7283,356.7606 C648.9033,356.7956 649.09,356.7956 649.2767,356.7956 C650.8867,356.7956 652.1933,355.489 652.1933,353.879 C652.1933,352.269 650.8867,350.9623 649.2767,350.9623 M649.86,352.129 C650.5017,352.129 651.0267,352.654 651.0267,353.2956 C651.0267,353.9373 650.5017,354.4623 649.86,354.4623 C649.2183,354.4623 648.6933,353.9373 648.6933,353.2956 C648.6933,352.654 649.2183,352.129 649.86,352.129" fill="#AAAAAA"/><text fill="#000000" font-family="sans-serif" font-size="14" lengthAdjust="spacing" textLength="206.4521" x="657.6435" y="360.4939">weightClassId: INTEGER «FK»</text></g><!--class event--><g class="entity" data-entity="event" data-source-line="87" data-uid="ent0009" id="entity_event"><rect fill="#FFFFFF" height="99.4844" rx="2.5" ry="2.5" style="stroke:#2E8B57;stroke-width:0.5;" width="323.2464" x="635.86" y="43.6406"/><text fill="#000000" font-family="sans-serif" font-size="14" font-weight="bold" lengthAdjust="spacing" textLength="44.7754" x="775.0955" y="61.6357">event</text><line style="stroke:#2E8B57;stroke-width:0.5;" x1="636.86" x2="958.1064" y1="69.9375" y2="69.9375"/><path d="M649.2767,77.401 C647.6667,77.401 646.36,78.7077 646.36,80.3177 C646.36,80.5044 646.36,80.691 646.395,80.866 L642.86,84.401 L642.86,86.7344 L646.36,86.7344 L646.36,84.401 L648.6933,84.401 L648.6933,83.2344 L648.7283,83.1994 C648.9033,83.2344 649.09,83.2344 649.2767,83.2344 C650.8867,83.2344 652.1933,81.9277 652.1933,80.3177 C652.1933,78.7077 650.8867,77.401 649.2767,77.401 M649.86,78.5677 C650.5017,78.5677 651.0267,79.0927 651.0267,79.7344 C651.0267,80.376 650.5017,80.901 649.86,80.901 C649.2183,80.901 648.6933,80.376 648.6933,79.7344 C648.6933,79.0927 649.2183,78.5677 649.86,78.5677" fill="#B8860B"/><text fill="#000000" font-family="sans-serif" font-size="14" font-weight="bold" lengthAdjust="spacing" textLength="14.8203" x="658.0674" y="86.9326">id</text><text fill="#000000" font-family="sans-serif" font-size="14" lengthAdjust="spacing" textLength="70.5879" x="672.8877" y="86.9326">: INTEGER</text><path d="M647.5267,94.8646 C645.59,94.8646 644.0267,96.4279 644.0267,98.3646 C644.0267,100.3013 645.59,101.8646 647.5267,101.8646 C649.4633,101.8646 651.0267,100.3013 651.0267,98.3646 C651.0267,96.4279 649.4633,94.8646 647.5267,94.8646" fill="#EFEFEF"/><text fill="#000000" font-family="sans-serif" font-size="14" lengthAdjust="spacing" textLength="202.2891" x="657.6435" y="103.2295">name: CHARACTER VARYING</text><path d="M647.5267,111.1615 C645.59,111.1615 644.0267,112.7248 644.0267,114.6615 C644.0267,116.5981 645.59,118.1615 647.5267,118.1615 C649.4633,118.1615 651.0267,116.5981 651.0267,114.6615 C651.0267,112.7248 649.4633,111.1615 647.5267,111.1615" fill="#EFEFEF"/><text fill="#000000" font-family="sans-serif" font-size="14" lengthAdjust="spacing" textLength="295.4629" x="657.6435" y="119.5264">date: TIMESTAMP WITHOUT TIME ZONE(6)</text><path d="M647.5267,127.4583 C645.59,127.4583 644.0267,129.0217 644.0267,130.9583 C644.0267,132.895 645.59,134.4583 647.5267,134.4583 C649.4633,134.4583 651.0267,132.895 651.0267,130.9583 C651.0267,129.0217 649.4633,127.4583 647.5267,127.4583" fill="#EFEFEF"/><text fill="#000000" font-family="sans-serif" font-size="14" lengthAdjust="spacing" textLength="218.1348" x="657.6435" y="135.8232">location: CHARACTER VARYING</text></g><!--link fighter to fighter_stats--><g class="link" data-entity-1="fighter" data-entity-2="fighter_stats" data-source-line="94" data-uid="lnk10" id="link_fighter_fighter_stats"><path codeLine="94" d="M503.83,392.3506 C503.83,412.0806 503.83,416.7306 503.83,435.7506" fill="none" id="fighter-fighter_stats" style="stroke:#2E8B57;stroke-width:1;"/><line style="stroke:#2E8B57;stroke-width:1;" x1="499.83" x2="507.83" y1="388.3506" y2="388.3506"/><line style="stroke:#2E8B57;stroke-width:1;" x1="499.83" x2="507.83" y1="391.3506" y2="391.3506"/><line style="stroke:#2E8B57;stroke-width:1;" x1="503.83" x2="503.83" y1="392.3506" y2="384.3506"/><line style="stroke:#2E8B57;stroke-width:1;" x1="507.83" x2="499.83" y1="439.7506" y2="439.7506"/><line style="stroke:#2E8B57;stroke-width:1;" x1="507.83" x2="499.83" y1="436.7506" y2="436.7506"/><line style="stroke:#2E8B57;stroke-width:1;" x1="503.83" x2="503.83" y1="435.7506" y2="443.7506"/></g><!--link fight to fight_result--><g class="link" data-entity-1="fight" data-entity-2="fight_result" data-source-line="95" data-uid="lnk11" id="link_fight_fight_result"><path codeLine="95" d="M834.13,376.1106 C834.13,400.3806 834.13,401.3206 834.13,425.6006" fill="none" id="fight-fight_result" style="stroke:#2E8B57;stroke-width:1;"/><line style="stroke:#2E8B57;stroke-width:1;" x1="830.13" x2="838.13" y1="372.1106" y2="372.1106"/><line style="stroke:#2E8B57;stroke-width:1;" x1="830.13" x2="838.13" y1="375.1106" y2="375.1106"/><line style="stroke:#2E8B57;stroke-width:1;" x1="834.13" x2="834.13" y1="376.1106" y2="368.1106"/><line style="stroke:#2E8B57;stroke-width:1;" x1="834.13" x2="840.13" y1="435.6006" y2="443.6006"/><line style="stroke:#2E8B57;stroke-width:1;" x1="834.13" x2="828.13" y1="435.6006" y2="443.6006"/><line style="stroke:#2E8B57;stroke-width:1;" x1="834.13" x2="834.13" y1="435.6006" y2="443.6006"/><ellipse cx="834.13" cy="429.6006" fill="none" rx="4" ry="4" style="stroke:#2E8B57;stroke-width:1;"/></g><!--link fighter to fight_result--><g class="link" data-entity-1="fighter" data-entity-2="fight_result" data-source-line="96" data-uid="lnk12" id="link_fighter_fight_result"><path codeLine="96" d="M608.76,376.4706 C681.55,376.4706 740.83,376.4706 740.83,376.4706 C740.83,376.4706 740.83,391.4706 740.83,425.6406" fill="none" id="fighter-fight_result" style="stroke:#2E8B57;stroke-width:1;"/><line style="stroke:#2E8B57;stroke-width:1;" x1="604.76" x2="604.76" y1="380.4706" y2="372.4706"/><line style="stroke:#2E8B57;stroke-width:1;" x1="607.76" x2="607.76" y1="380.4706" y2="372.4706"/><line style="stroke:#2E8B57;stroke-width:1;" x1="608.76" x2="600.76" y1="376.4706" y2="376.4706"/><line style="stroke:#2E8B57;stroke-width:1;" x1="740.83" x2="746.83" y1="435.6406" y2="443.6406"/><line style="stroke:#2E8B57;stroke-width:1;" x1="740.83" x2="734.83" y1="435.6406" y2="443.6406"/><line style="stroke:#2E8B57;stroke-width:1;" x1="740.83" x2="740.83" y1="435.6406" y2="443.6406"/><ellipse cx="740.83" cy="429.6406" fill="none" rx="4" ry="4" style="stroke:#2E8B57;stroke-width:1;"/></g><!--link weight_class to fighter--><g class="link" data-entity-1="weight_class" data-entity-2="fighter" data-source-line="97" data-uid="lnk13" id="link_weight_class_fighter"><path codeLine="97" d="M267.97,143.3606 C267.97,163.0806 267.97,161.4106 267.97,185.0306" fill="none" id="weight_class-fighter" style="stroke:#2E8B57;stroke-width:1;"/><line style="stroke:#2E8B57;stroke-width:1;" x1="263.97" x2="271.97" y1="139.3606" y2="139.3606"/><line style="stroke:#2E8B57;stroke-width:1;" x1="263.97" x2="271.97" y1="142.3606" y2="142.3606"/><line style="stroke:#2E8B57;stroke-width:1;" x1="267.97" x2="267.97" y1="143.3606" y2="135.3606"/><line style="stroke:#2E8B57;stroke-width:1;" x1="267.97" x2="273.97" y1="195.0306" y2="203.0306"/><line style="stroke:#2E8B57;stroke-width:1;" x1="267.97" x2="261.97" y1="195.0306" y2="203.0306"/><line style="stroke:#2E8B57;stroke-width:1;" x1="267.97" x2="267.97" y1="195.0306" y2="203.0306"/><ellipse cx="267.97" cy="189.0306" fill="none" rx="4" ry="4" style="stroke:#2E8B57;stroke-width:1;"/></g><!--link team to fighter--><g class="link" data-entity-1="team" data-entity-2="fighter" data-source-line="98" data-uid="lnk14" id="link_team_fighter"><path codeLine="98" d="M476.48,143.3606 C476.48,163.0806 476.48,161.4106 476.48,185.0306" fill="none" id="team-fighter" style="stroke:#2E8B57;stroke-width:1;"/><line style="stroke:#2E8B57;stroke-width:1;" x1="472.48" x2="480.48" y1="139.3606" y2="139.3606"/><line style="stroke:#2E8B57;stroke-width:1;" x1="472.48" x2="480.48" y1="142.3606" y2="142.3606"/><line style="stroke:#2E8B57;stroke-width:1;" x1="476.48" x2="476.48" y1="143.3606" y2="135.3606"/><line style="stroke:#2E8B57;stroke-width:1;" x1="476.48" x2="482.48" y1="195.0306" y2="203.0306"/><line style="stroke:#2E8B57;stroke-width:1;" x1="476.48" x2="470.48" y1="195.0306" y2="203.0306"/><line style="stroke:#2E8B57;stroke-width:1;" x1="476.48" x2="476.48" y1="195.0306" y2="203.0306"/><ellipse cx="476.48" cy="189.0306" fill="none" rx="4" ry="4" style="stroke:#2E8B57;stroke-width:1;"/></g><!--link fighter to ranking--><g class="link" data-entity-1="fighter" data-entity-2="ranking" data-source-line="99" data-uid="lnk15" id="link_fighter_ranking"><path codeLine="99" d="M307.21,392.3506 C307.21,417.9206 307.21,419.0506 307.21,442.1506" fill="none" id="fighter-ranking" style="stroke:#2E8B57;stroke-width:1;"/><line style="stroke:#2E8B57;stroke-width:1;" x1="303.21" x2="311.21" y1="388.3506" y2="388.3506"/><line style="stroke:#2E8B57;stroke-width:1;" x1="303.21" x2="311.21" y1="391.3506" y2="391.3506"/><line style="stroke:#2E8B57;stroke-width:1;" x1="307.21" x2="307.21" y1="392.3506" y2="384.3506"/><line style="stroke:#2E8B57;stroke-width:1;" x1="307.21" x2="313.21" y1="452.1506" y2="460.1506"/><line style="stroke:#2E8B57;stroke-width:1;" x1="307.21" x2="301.21" y1="452.1506" y2="460.1506"/><line style="stroke:#2E8B57;stroke-width:1;" x1="307.21" x2="307.21" y1="452.1506" y2="460.1506"/><ellipse cx="307.21" cy="446.1506" fill="none" rx="4" ry="4" style="stroke:#2E8B57;stroke-width:1;"/></g><!--link weight_class to ranking--><g class="link" data-entity-1="weight_class" data-entity-2="ranking" data-source-line="100" data-uid="lnk16" id="link_weight_class_ranking"><path codeLine="100" d="M152.21,143.2906 C152.21,219.6006 152.21,355.3706 152.21,442.2406" fill="none" id="weight_class-ranking" style="stroke:#2E8B57;stroke-width:1;"/><line style="stroke:#2E8B57;stroke-width:1;" x1="148.21" x2="156.21" y1="139.2906" y2="139.2906"/><line style="stroke:#2E8B57;stroke-width:1;" x1="148.21" x2="156.21" y1="142.2906" y2="142.2906"/><line style="stroke:#2E8B57;stroke-width:1;" x1="152.21" x2="152.21" y1="143.2906" y2="135.2906"/><line style="stroke:#2E8B57;stroke-width:1;" x1="152.21" x2="158.21" y1="452.2406" y2="460.2406"/><line style="stroke:#2E8B57;stroke-width:1;" x1="152.21" x2="146.21" y1="452.2406" y2="460.2406"/><line style="stroke:#2E8B57;stroke-width:1;" x1="152.21" x2="152.21" y1="452.2406" y2="460.2406"/><ellipse cx="152.21" cy="446.2406" fill="none" rx="4" ry="4" style="stroke:#2E8B57;stroke-width:1;"/></g><!--link event to fight--><g class="link" data-entity-1="event" data-entity-2="fight" data-source-line="101" data-uid="lnk17" id="link_event_fight"><path codeLine="101" d="M851.35,151.3906 C851.35,174.3306 851.35,175.9906 851.35,201.2906" fill="none" id="event-fight" style="stroke:#2E8B57;stroke-width:1;"/><line style="stroke:#2E8B57;stroke-width:1;" x1="847.35" x2="855.35" y1="147.3906" y2="147.3906"/><line style="stroke:#2E8B57;stroke-width:1;" x1="847.35" x2="855.35" y1="150.3906" y2="150.3906"/><line style="stroke:#2E8B57;stroke-width:1;" x1="851.35" x2="851.35" y1="151.3906" y2="143.3906"/><line style="stroke:#2E8B57;stroke-width:1;" x1="851.35" x2="857.35" y1="211.2906" y2="219.2906"/><line style="stroke:#2E8B57;stroke-width:1;" x1="851.35" x2="845.35" y1="211.2906" y2="219.2906"/><line style="stroke:#2E8B57;stroke-width:1;" x1="851.35" x2="851.35" y1="211.2906" y2="219.2906"/><ellipse cx="851.35" cy="205.2906" fill="none" rx="4" ry="4" style="stroke:#2E8B57;stroke-width:1;"/></g><!--link weight_class to fight--><g class="link" data-entity-1="weight_class" data-entity-2="fight" data-source-line="102" data-uid="lnk18" id="link_weight_class_fight"><path codeLine="102" d="M293.49,143.3006 C293.49,162.6806 293.49,173.4706 293.49,173.4706 C293.49,173.4706 743.61,173.4706 743.61,173.4706 C743.61,173.4706 743.61,176.6506 743.61,201.2306" fill="none" id="weight_class-fight" style="stroke:#2E8B57;stroke-width:1;"/><line style="stroke:#2E8B57;stroke-width:1;" x1="289.49" x2="297.49" y1="139.3006" y2="139.3006"/><line style="stroke:#2E8B57;stroke-width:1;" x1="289.49" x2="297.49" y1="142.3006" y2="142.3006"/><line style="stroke:#2E8B57;stroke-width:1;" x1="293.49" x2="293.49" y1="143.3006" y2="135.3006"/><line style="stroke:#2E8B57;stroke-width:1;" x1="743.61" x2="749.61" y1="211.2306" y2="219.2306"/><line style="stroke:#2E8B57;stroke-width:1;" x1="743.61" x2="737.61" y1="211.2306" y2="219.2306"/><line style="stroke:#2E8B57;stroke-width:1;" x1="743.61" x2="743.61" y1="211.2306" y2="219.2306"/><ellipse cx="743.61" cy="205.2306" fill="none" rx="4" ry="4" style="stroke:#2E8B57;stroke-width:1;"/></g><!--SRC=[hLRVJzim47xFNt5aqaIb8fws1rHL2YL0D6XHAKFR2tBZQsCriIlRMK6K_trs74eQ6ffDf58RttTtzdttmpsWE6CSGPDfYeV8IOPTe5Fxsm7ackady7lJlXFrZgTzt_CEIgFb0fyE7plmF6EOqXSmUhrOf4AUd16vk10fHJuMjD_xQXJxlUC2wyEZTRDnCgixSHw-1CNppdPZPmHvndTPXkVsOompf8mSIOo5f5KNNi8eWj8eKUYd9Iedo50dWfQBcCauHS_JOWbQm5HeBJAWp7ZJJ73FKml6bqII3AJ8EJLxS9JmhI9FpJ6jUn3IEAu0AY5Kh1YVmuoa2Yj8GZXTIQOryXAhW75Ab89d3ynpIkB5lDXuOAE2LS8q5aWWfLWveK8obuZSMHWIKDQ05yz4MAGU9aYoBcZp3HqWohtPpOei0wFGEO5eE0almZ4OSSa_sBgmqE0o60U3YG5_1kDVqV2YgfIAc5ZQ6XHVDgSuP_F4vELM4wswC7Eh1sMNxbZReXRdCpoh1YWLIc4JI2LPDM4BBkA5o7KJhl9fnfGo0TSrYcf_3IBQEdElT_wZtwzpCKQLfxgaua4MgmeJhv8MH31rpxYjKGEVZaPNOJ2imgxwzsQogBc67JJBC38TNshiz5CXO6Vu_q4HoasbRDL86r9cUPeEsrGmP_6YLQbFcUdsCw8BpKbq7TvEWkiRk8ycbwExII61twDXUFYzizr6jZz8QWVklYqIj04ECgjuDhexlGhXPXmEejjej9LIYIHEcjKSqIldpCwM3nDYvy6UR8m9DyDgtWNfNbmsNXSjic5L6w1yIGsdDD3jQDrVH6tZVmll_aspMvezk9bSnBab-Qp1wPnUiOpftMcizKBP2PK-QCMxkqXohXiKMWu7cikFndn5iNL_k2JX7_DVv9FI65fVNUVIyUHUFojbz9zxV__jw9ULxCDwVNIqNeE_TG_wfOA3nNC9bvU3NpFVWLThjwPah3pVDlyk-Jk_PRCtkdp32z9hFZy-YVyN]--></g></svg>